<svg xmlns="http://www.w3.org/2000/svg" width="162" height="25" fill="none">
  <path fill="#ABB0C1" fill-rule="evenodd" d="M97.008 5.065c2.506 0 3.479-2.105 3.783-4.47l-.192-.148a2.69 2.69 0 0 1-2.458 1.538c-1.609 0-3.268-.466-4.98-.946C91.34.528 89.46 0 87.521 0c-2.72 0-4.743 1.65-4.743 4.165 0 1.727.937 2.544 1.688 2.884l.341-.19c-.407-.184-1.046-.534-1.046-1.348 0-1.346 1.331-2.068 3.097-2.068 1.333 0 2.881.359 4.5.734 1.434.332 2.924.678 4.37.798v14.063c-.65.1-.918.129-1.499.129-1.687 0-3.31-.384-4.421-1.154.964-.739 2.867-2.034 3.995-2.654V5.234c-1.268.785-3.329 1.802-4.445 2.264v.105c.838.306.96 1.372.96 2.823v6.882l-.768.492c-1.73-1.37-2.863-3.21-2.863-5.983 0-3.327 1.203-5.44 2.905-6.99l-.213-.084c-2.439.863-6.175 4.126-6.175 8.652 0 5.255 3.823 8.508 8.762 8.508 3.907 0 7.061-2.508 8.207-4.15l-.108-.276c-.734.589-2.587 1.325-4.103 1.538V5c.191.021.748.065 1.046.065M29.642 17.98l-2.715 2.801c-.555-.43-1.67-1.181-2.414-1.58V9.798c-.589-.268-1.392-.854-1.73-1.175l-.962 1.004v8.291l1.346.766v.068l-1.987 2.03c-.756-.642-2.06-1.48-3.078-2.007v-.044c.362-.342.62-.943.62-2.093V2.532c0-1.061-.19-1.384-.402-1.745l-.003-.006.147-.063c.47.407.764.75.878 1.472h.044c.688-1.147 1.543-1.9 3.205-2.114l.042.087c-.464.565-.812 1.183-.812 2.135v6.924l2.65-2.8c.896.75 2.413 1.925 3.738 2.608v.061c-.363.388-.576 1.133-.576 2.42v6.469l1.005.643.812-.831zm4.316-15.705a8.5 8.5 0 0 0-1.859 1.9c-.485-.609-1.312-1.339-1.943-1.771C30.78 1.916 31.724.948 32.1.416c.376.528 1.292 1.422 1.859 1.859m11.298 4.898c-.102 1.287-1.087 2.584-2.458 2.584-1.279 0-2.068-.519-2.5-1.43l-.171.105v8.657c.73.39 1.87 1.076 2.5 1.495l1.367-1.409.213.188-3.27 3.399c-1.45-1.049-3.45-2.262-4.68-2.842v-.066c.579-.358.792-.92.792-2.284V9.65a17.9 17.9 0 0 0 5.279-3.226c.246.407.814.918 1.537.918.602 0 1.072-.135 1.306-.3zm-12.07 13.608 2.733-2.84-.213-.196-.79.838-1.026-.641v-7.46c0-.981.202-1.83.641-2.093v-.042c-1.082-.59-2.375-1.46-3.012-1.986L28.848 9.16l.192.19.79-.81.982.683v7.798c0 .833-.277 1.495-.682 1.664v.068c1.074.595 2.346 1.428 3.055 2.03m-20.726-1.77q.27 0 .532-.02V4.195c-.76-.2-1.292-.612-1.794-1.189l-.107.022v12.31c-1.137.637-2.994 1.91-3.888 2.584 1.33.92 3.272 1.089 5.257 1.089m.766-14.763V18.97c1.548-.167 2.947-.83 4.234-1.728l.106.318c-1.384 1.612-3.996 4.253-8.034 4.253C4.036 21.813 0 18.079 0 11.706c0-5.85 4.825-9.093 7.95-10.3l.257.129C5.26 3.487 3.675 5.852 3.675 9.973c0 3.635 1.304 6.223 3.27 7.736l.663-.45V8.157c0-1.643-.298-2.797-.791-3.2v-.133c2.415-1.129 4.915-2.905 6.647-4.487.534.624 1.197.898 2.03.898a3.13 3.13 0 0 0 1.922-.618l.15.127c-.08 1.858-1.068 3.588-3.397 3.588-.35 0-.661-.028-.943-.083m60.92 5.702v8.846l-.337.192c-.899-.705-1.857-1.439-2.353-1.73V8.412l.342-.192c.462.373 1.627 1.283 2.348 1.73m3.125 1.156c0-1.221.253-1.819.683-2.013v-.06c-1.175-.621-3.078-1.925-4.04-2.63-1.498 1.09-3.612 2.416-5.555 3.355v6.283c0 1.11-.278 1.814-.706 2.074v.06c1.573.858 2.368 1.44 3.698 2.412l.297.218c1.454-1.159 4.353-2.777 5.623-3.334zm-14.896 7.01V9.867c-1.042-.643-1.943-1.302-2.371-1.669l-.32.194v8.804c.522.3 1.634 1.101 2.136 1.475zm4.38 1.665c0 .765-1.001 1.567-2.149 2.485l-.307.247c-1.662 1.348-2.52 1.991-2.52 1.991-.826-.466-1.3-.599-2.522-.599-1.542 0-2.416.16-3.504.6l-.066-.024c.878-1.635 2.62-2.992 5.064-2.992 1.09 0 2.323.454 3.122.986.213-.135.897-.635.897-1.005 0-.48-.388-.728-.852-1.026-.593-.381-1.31-.842-1.498-1.965l-2.309 2.327c-1.014-.802-3.071-2.114-4.168-2.69v-.087c.472-.301.664-.708.664-1.753V9.76c2.262-1.192 4.334-2.386 5.6-3.354.991.825 2.913 2.048 3.972 2.629v.06c-.49.303-.662.773-.662 2.482v5.17c0 .908.34 1.304.663 1.681.294.344.575.671.575 1.354m-16.531-6.993v5.708l-.64.446c-1.369-.427-2.265-1.711-2.265-2.967 0-1.647 1.046-2.966 2.905-3.187m0-2.82v2.545c-.44.05-1.3.218-1.667.344-1.009-1.012-1.217-2.983-1.323-4.49l.342-.215c.582.47 1.886 1.378 2.648 1.817m2.628 10.792 2.737-2.755-.213-.213-.791.812-1.239-.793v-6.452c0-1.215.148-1.688.726-2.074v-.063c-1.175-.66-3.29-2.034-4.211-2.82l-4.7 2.904c.328 1.623 1.527 2.967 2.99 3.676v.023c-1.7.612-3.546 1.791-3.546 4.082 0 1.7 1.304 3.16 2.927 3.694.488-.343.931-.664 1.382-.99.385-.28.776-.562 1.204-.866h.021c.743.363 2.047 1.28 2.713 1.835m99.592-2.736-2.736 2.777a23 23 0 0 0-2.414-1.602V9.733a14 14 0 0 1-1.453-1.07l-1.283 1.304v7.973c.42.181 1.025.55 1.325.768v.065l-1.985 2.028c-.724-.606-2.011-1.429-3.102-2.009v-.063c.45-.255.665-.79.665-2.01V9.774L139.988 8.6l-.793.812-.194-.192 2.736-2.8c.479.511 1.846 1.623 2.821 2.222v.836l2.905-3.057c1.006.79 2.629 1.829 3.57 2.394v.066c-.513.276-.663.96-.663 2.177v6.882l1.068.704.812-.814zm-14.915 2.755 2.715-2.818-.17-.171-.768.791-1.37-.772v-7.544c0-1.108.19-1.616.665-1.836v-.042c-.779-.43-2.302-1.357-3.059-1.966-.454.588-1.45 1.552-1.988 2.008v.063c.313.15.948.488 1.283.75-.002 2.221 0 8.289 0 8.289l-1.238 1.151a14 14 0 0 0-1.452-1v-9.66c-.74-.346-1.871-1.152-2.394-1.603l-2.713 2.82.213.192.833-.856.983.688v7.006c0 1.346-.133 1.913-.704 2.224v.065c1.109.55 2.156 1.215 3.396 2.24l3.097-2.822v.985c.72.4 1.941 1.22 2.671 1.816M114.055 2.296c-.631.44-1.479 1.376-1.861 1.903a12.8 12.8 0 0 0-1.901-1.816c.542-.441 1.479-1.405 1.901-2.028.43.547 1.346 1.505 1.861 1.941m-.729 18.509 2.737-2.84-.192-.194-.815.835-1.067-.641V10.23c0-1.137.202-1.556.641-1.818V8.37c-.778-.401-2.264-1.266-3.013-1.988l-2.673 2.779.194.19.771-.787 1.004.704v7.648c0 .897-.194 1.494-.665 1.796v.065c.893.464 2.262 1.374 3.078 2.027m-4.199-13.532c-.097 1.112-1.09 2.547-2.329 2.547-.905 0-1.601-.408-2.072-1.072l-.32.323v8.312c.753.357 1.738.947 2.156 1.22l.791-.813.215.188-2.776 2.823c-1.289-.975-3.04-2.082-4.083-2.606v-.023c.456-.162.642-.536.642-1.276V9.754l-1.37-1.194-.767.831-.195-.194 2.629-2.776c.785.865 2.102 1.867 2.715 2.308l2.18-2.285c.409.504.856.937 1.624.937.298 0 .618-.085.855-.19zm50.008 4.707a133 133 0 0 1-2.435-3.652l-.213.169v5.255zM162 10.505a96 96 0 0 0-5.513 3.654v3.017c.713.319 1.939 1.076 2.5 1.45l1.452-1.496.192.173-3.395 3.502c-1.055-.762-3.118-2.076-4.576-2.861v-.063c.469-.133.73-.815.73-2.31V9.758c2.006-.899 3.865-2.135 5.361-3.354zm-38.993-.682v8.954l-.407.211-2.287-1.749v-7.61l1.004-.962zm3.12 1.69c0-1.52.138-2.18.661-2.396v-.064c-1.019-.63-3.055-1.92-3.846-2.628l-2.629 2.8V2.407c0-1.106.329-1.612.791-2.182L121.081.1c-1.658.21-2.515.947-3.203 2.092h-.044c-.127-.618-.426-1.067-.875-1.451l-.131.065c.215.384.386.876.386 1.836V15.46c0 1.734-.087 2.31-.707 2.654v.06c1.327.788 2.968 1.912 3.998 2.63 1.367-1.302 4.295-2.823 5.622-3.288z" clip-rule="evenodd"/>
</svg>
