<svg xmlns="http://www.w3.org/2000/svg" width="77" height="20" fill="none">
  <path fill="#ABB0C1" fill-rule="evenodd" d="M43.727 6.27c.974-.53 1.947-.795 3.186-.795 3.01 0 5.31 2.65 5.31 6.27 0 4.592-2.832 7.507-7.523 7.507-1.682 0-3.364-.265-4.958-.619.09-1.854.179-13.158 0-15.278-.175-1.06-.442-1.501-1.237-1.678l-.62-.088v-.53L43.815 0c-.088.883-.088 3.443-.088 6.27m.088 11.922c.265.088.708.088 1.062.088 1.859 0 3.187-2.737 3.187-6.27 0-2.826-1.062-5.122-3.01-5.122-.444 0-.797.088-1.328.265-.088 4.592 0 9.803.089 11.04M0 .353h15.579l.089 5.21-.885.266c-.885-2.65-2.124-4.151-4.515-4.151H7.17a154 154 0 0 0-.177 7.506l2.124-.089c1.328 0 1.946-1.059 2.213-2.56h.797v6.268h-.797c-.266-1.501-.885-2.56-2.213-2.56l-2.124-.089c0 2.296.088 4.15.177 5.3.177 1.677.62 2.472 1.77 2.56l1.062.177v.706H0v-.706l.885-.177c1.15-.087 1.593-.883 1.77-2.56.177-2.738.266-8.478 0-11.658-.176-1.677-.62-2.384-1.77-2.56L0 1.148zm27.25 11.935c0-3.974-2.213-6.977-6.639-6.977s-6.904 3.18-6.904 6.977c0 3.974 2.213 6.978 6.638 6.978 4.426 0 6.905-3.18 6.905-6.978m-9.383 0c0-3.444.531-6.093 2.478-6.093 1.86 0 2.744 2.738 2.744 6.093 0 3.444-.532 6.093-2.566 6.093-1.771 0-2.656-2.737-2.656-6.093m42.31-6.977c-4.515 0-6.816 3.445-6.816 7.066 0 4.062 2.832 6.888 6.815 6.889 2.478 0 4.425-1.237 5.31-2.474l-.353-.44c-.885.618-1.593.97-3.01.97-3.187 0-4.78-2.384-4.691-5.652h8.232c0-3.62-1.771-6.359-5.488-6.359m1.415 5.299-4.16.089c.088-2.032.886-4.504 2.39-4.504s1.77 2.649 1.77 4.415m10.536-5.3c1.593 0 3.01.265 4.071.707l.092 3.444-.62.177c-.797-2.385-1.86-3.356-3.452-3.356-1.062 0-1.86.795-1.86 1.943s.885 1.766 3.363 2.737c2.302.884 3.276 1.943 3.276 3.798 0 2.737-2.213 4.504-5.666 4.504-1.682 0-3.63-.354-4.691-.795l-.09-3.885.62-.178c.974 2.65 2.214 3.62 3.895 3.62 1.417 0 2.213-.97 2.213-2.03s-.62-1.679-2.832-2.473c-2.127-.706-3.63-1.677-3.63-3.974 0-2.296 2.037-4.239 5.311-4.239M33.18 8.403c1.416-3.18 4.072-3.62 5.576-2.738l-1.416 3.62c-1.77-1.147-3.718-.618-4.16 0-.089 2.12-.089 5.476.088 7.154.09 1.06.355 1.589 1.24 1.678l1.062.089v.706h-8.232v-.706l.62-.09c.797-.088 1.15-.618 1.24-1.677.088-1.854.176-5.564 0-7.683-.09-1.148-.443-1.59-1.24-1.678l-.62-.088v-.53l5.93-1.148z" clip-rule="evenodd"/>
</svg>
