<svg xmlns="http://www.w3.org/2000/svg" xml:space="preserve" viewBox="0 0 38.9 41.8">
  <style>
    .sharing-files-0{fill:none;stroke:#1e2022}
    .sharing-files-1{fill:#1e2022}
  </style>
  <path stroke-miterlimit="10" stroke-width="1.5" d="M31.6 31v5.6c0 1.3-1 2.3-2.3 2.3H5.5c-1.3 0-2.3-1-2.3-2.3V3.1c0-1.3 1-2.3 2.3-2.3h18.1l8 8v4.9" class="sharing-files-0 fill-none stroke-dark"/>
  <path d="M24.5 9c-.7 0-1.2-.6-1.2-1.2V.7L31.6 9z" class="sharing-files-1 fill-dark"/>
  <path stroke-miterlimit="10" stroke-width="1.3" d="M22.5 12.6H9.3m13.2 4.5H9.3m13.2 4.5H9.3m13.2 4.7H9.3" class="sharing-files-0 fill-none stroke-dark"/>
  <path stroke-miterlimit="10" stroke-width="1.5" d="m29.2 20.5 5.2-3.4m0 9.3-5.2-3.7m-1.9-3.3c1.2 0 2.1 1 2.1 2.1 0 1.2-1 2.1-2.1 2.1-1.2 0-2.1-1-2.1-2.1s.9-2.1 2.1-2.1zm8.8-5.5c1.2 0 2.1 1 2.1 2.1 0 1.2-1 2.1-2.1 2.1-1.2 0-2.1-1-2.1-2.1s1-2.1 2.1-2.1zm0 11.4c1.2 0 2.1 1 2.1 2.1 0 1.2-1 2.1-2.1 2.1-1.2 0-2.1-1-2.1-2.1 0-1.2 1-2.1 2.1-2.1z" class="sharing-files-0 fill-none stroke-dark"/>
  <path d="M3.5 36.7V6.9c0-.9-.7-1.6-1.6-1.6h-.3C.7 5.3 0 6 0 6.9v33.3c0 .9.7 1.6 1.6 1.6h24.5c.9 0 1.6-.7 1.6-1.6v-.3c0-.9-.7-1.6-1.6-1.6h-21c-.9 0-1.6-.7-1.6-1.6" class="sharing-files-1 fill-dark" opacity=".2"/>
</svg>
