<svg xmlns="http://www.w3.org/2000/svg" xml:space="preserve" class="injected-svg js-svg-injector" data-parent="#icon123" viewBox="0 0 120 120">
  <style>
    .icon-24-0{fill:none;stroke:#bdc5d1}
    .icon-24-1{fill:#377dff}
    .icon-24-3{fill:none;stroke:#fff}
  </style>
  <path stroke-linecap="round" stroke-linejoin="round" stroke-miterlimit="10" stroke-width="3" d="m99.8 26.9 6.7-2.8m-59.4 2.8-6.7-2.8m59.4 24.6 6.7 2.8m-59.4-2.8-6.7 2.8m44-40 2.7-6.7m-27.3 0 2.7 6.7m-14.3 1 5.1 5.1m45.4-5.1-5.1 5.1M48.2 63.1l5.1-5.1m45.4 5.1L93.6 58M73.5 2.1v7.2M102 37.8h7.2m-71.5 0H45m39.3 58.9 17.3-4.7c2.1-.6 4.3.6 5 2.7h0c.6 1.9-.2 4.1-2.1 5L71 116.5c-3.7 1.8-8 2-11.7.4L40.7 109h-9.4m-.1-26.5h9.4l19.8 6.1H72c2.7 0 4.9 2.2 4.9 4.9h0c0 2.5-2 4.5-4.5 4.5h-12c-2.6 0-4.7 2.1-4.7 4.7h0" class="icon-24-0 fill-none stroke-gray-400"/>
  <path d="M12.2 112.3h17.6c.8 0 1.4-.6 1.4-1.4V80.6c0-.8-.6-1.4-1.4-1.4H12.2c-.8 0-1.4.6-1.4 1.4v30.3c0 .7.6 1.4 1.4 1.4" class="icon-24-1 fill-primary"/>
  <path stroke-linecap="round" stroke-linejoin="round" stroke-miterlimit="10" stroke-width="3" d="M84.1 62.6v-7.8c5.7-3.6 9.5-9.8 9.5-17 0-11.1-9-20.1-20.1-20.1s-20.1 9-20.1 20.1c0 7.2 3.8 13.5 9.5 17v7.8" class="icon-24-0 fill-none stroke-gray-400"/>
  <path stroke-linecap="round" stroke-linejoin="round" stroke-miterlimit="10" stroke-width="3" d="M73.5 55.4v14.3m10.6 0H62.8m5.6 8.2h10.1" class="fill-none stroke-primary" style="fill:none;stroke:#377dff"/>
  <path stroke-linecap="round" stroke-linejoin="round" stroke-miterlimit="10" stroke-width="3" d="M21.8 85.7v3.1" class="icon-24-3 fill-none stroke-white"/>
  <circle cx="76.8" cy="40.8" r="10.6" class="fill-gray-400" opacity=".5" style="fill:#bdc5d1"/>
  <circle cx="73.2" cy="36.7" r="10.6" class="icon-24-1 fill-primary"/>
  <path stroke-linecap="round" stroke-linejoin="round" stroke-miterlimit="10" stroke-width="3" d="M73.2 41.7v-2m0-5.6" class="icon-24-3 fill-none stroke-white"/>
</svg>
