<svg xmlns="http://www.w3.org/2000/svg" width="105" height="18" fill="none">
  <path fill="#ABB0C1" fill-rule="evenodd" d="M87.035 0h4.077v17.656h-4.077zM15.488 5.98v11.676h4.554V0h-6.328l-3.678 9.742L6.328 0H0v17.656h4.554V5.981L9.03 17.656h2.013zm13.605 10.407v1.271h4.076V9.664c0-3.971-2.885-5.108-5.955-5.108-1.958 0-4.156.58-5.8 1.984l1.51 2.831c1.032-.872 2.303-1.376 3.573-1.376 1.644 0 2.596.768 2.596 1.88v1.27c-.767-.952-2.277-1.51-3.971-1.51-1.959 0-4.395 1.036-4.395 4.131 0 2.86 2.436 4.21 4.395 4.21 1.64 0 3.178-.637 3.971-1.589m0-3.15v1.137c-.424.612-1.376.927-2.277.927-1.057 0-2.038-.474-2.038-1.48s.98-1.485 2.038-1.485c.901 0 1.854.293 2.277.902m4.36 2.752 1.694-2.911c.953.847 2.99 1.72 4.5 1.72 1.217 0 1.72-.344 1.72-.902 0-.564-.942-.72-2.156-.92-2.196-.363-5.28-.873-5.28-4.213 0-2.252 1.959-4.21 5.477-4.21 2.173 0 3.972.687 5.348 1.694l-1.56 2.885c-.768-.742-2.224-1.401-3.758-1.401-.956 0-1.59.37-1.59.872 0 .478.86.624 1.996.816 2.195.371 5.415.916 5.415 4.372 0 2.437-2.143 4.182-5.796 4.182-2.303 0-4.66-.768-6.01-1.984m21-5.773v7.44h4.076V8.551c0-2.357-1.325-3.997-4.235-3.997-2.143 0-3.653.978-4.42 1.88V0h-4.077v17.656h4.076V9.398c.478-.583 1.271-1.245 2.462-1.245 1.296 0 2.118.503 2.118 2.063m13.019 7.442v-1.27c-.793.951-2.331 1.589-3.971 1.589-1.96 0-4.395-1.35-4.395-4.21 0-3.096 2.436-4.132 4.395-4.132 1.694 0 3.203.558 3.971 1.51v-1.27c0-1.112-.952-1.88-2.596-1.88-1.27 0-2.541.504-3.573 1.376l-1.51-2.831c1.644-1.405 3.842-1.984 5.8-1.984 3.07 0 5.955 1.137 5.955 5.108v7.994zm0-3.284v-1.136c-.424-.609-1.376-.902-2.277-.902-1.057 0-2.038.478-2.038 1.484s.98 1.481 2.038 1.481c.901 0 1.853-.315 2.277-.927M72.945.002v17.656h4.077v-1.48c1.06 1.216 2.357 1.799 3.787 1.799 3.15 0 5.636-2.383 5.636-6.723 0-4.185-2.432-6.698-5.636-6.698-1.405 0-2.78.554-3.787 1.825V0zm9.344 11.252c0 1.93-1.216 3.12-2.83 3.12-.873 0-1.934-.449-2.437-1.136V9.32c.503-.687 1.564-1.165 2.436-1.165 1.615 0 2.831 1.19 2.831 3.099m16.172-6.702c-3.997 0-6.777 2.99-6.777 6.698 0 4.156 3.019 6.723 6.961 6.723 1.959 0 4.077-.554 5.348-1.695l-1.774-2.671c-.739.687-2.223 1.086-3.125 1.086-1.85 0-2.91-.956-3.2-2.093h9.105v-.927c0-4.34-2.751-7.12-6.538-7.12M95.84 9.82c.159-.927.847-1.984 2.62-1.984 1.88 0 2.542 1.082 2.647 1.984z" clip-rule="evenodd"/>
</svg>
