<svg xmlns="http://www.w3.org/2000/svg" width="18" height="19" fill="none">
  <path fill="#fff" fill-rule="evenodd" d="M17.912.96c.012.011.024.023.024.035.035.082.047.176.059.27V5.99a.764.764 0 0 1-.766.765.764.764 0 0 1-.766-.765V3.103l-4.217 4.218a.75.75 0 0 1-.542.224.75.75 0 0 1-.542-.224.775.775 0 0 1 0-1.084l4.206-4.206h-2.875a.764.764 0 0 1-.765-.765c0-.424.341-.766.765-.766h4.724c.036 0 .071.012.095.024a.6.6 0 0 1 .2.035c.082.035.153.094.224.153h.01q.004.002.013.012t.012.017l.012.018c.047.06.094.13.13.2m-4.777 9.985a9.5 9.5 0 0 0 2.05.506 2.353 2.353 0 0 1 2.026 2.368v2.356c0 .33-.07.648-.2.943-.142.306-.33.565-.566.789-.247.224-.53.389-.836.495-.248.07-.495.117-.754.117-.07 0-.142 0-.212-.011a16.5 16.5 0 0 1-7.14-2.545 16.2 16.2 0 0 1-4.959-4.96 16.36 16.36 0 0 1-2.532-7.15 2.5 2.5 0 0 1 .106-.978 2.3 2.3 0 0 1 .495-.824 2.3 2.3 0 0 1 .789-.566c.294-.13.612-.2.942-.2H4.7a2.25 2.25 0 0 1 1.543.566c.436.365.719.883.79 1.448.094.707.27 1.39.518 2.062.153.412.189.872.094 1.308a2.3 2.3 0 0 1-.624 1.154l-.577.577a11.8 11.8 0 0 0 3.64 3.64l.577-.577c.318-.306.719-.53 1.166-.612a2.26 2.26 0 0 1 1.308.094m2.533 5.23v-2.379a.76.76 0 0 0-.189-.542.8.8 0 0 0-.506-.283 11 11 0 0 1-2.38-.589.73.73 0 0 0-.448-.035.74.74 0 0 0-.4.212l-1.001 1.001a.77.77 0 0 1-.92.118 13.4 13.4 0 0 1-5.018-5.019.77.77 0 0 1 .13-.918l1.001-1.002a.83.83 0 0 0 .212-.4.73.73 0 0 0-.035-.448 11 11 0 0 1-.59-2.38.77.77 0 0 0-.27-.494.8.8 0 0 0-.53-.2h-2.38a.9.9 0 0 0-.341.07.9.9 0 0 0-.271.2.9.9 0 0 0-.165.283.8.8 0 0 0-.036.33 15.1 15.1 0 0 0 2.286 6.48 14.8 14.8 0 0 0 4.5 4.5 14.8 14.8 0 0 0 6.467 2.308c.094.012.212 0 .318-.035a.8.8 0 0 0 .295-.177.8.8 0 0 0 .271-.6" clip-rule="evenodd"/>
</svg>
