<svg xmlns="http://www.w3.org/2000/svg" xml:space="preserve" viewBox="0 0 38.9 41.8">
  <style>
    .stars-0{fill:#ffc107}
  </style>
  <path d="m19.7 10.5 3.2 6.5c0 .1.1.1.2.2l7.1 1c.2 0 .3.3.2.5l-5.2 5c-.1.1-.1.2-.1.3l1.2 7.1c0 .2-.2.4-.4.3L19.5 28h-.3l-6.4 3.4c-.2.1-.5-.1-.4-.3l1.2-7.1c0-.1 0-.2-.1-.3l-5.2-5c-.2-.2-.1-.5.2-.5l7.1-1c.1 0 .2-.1.2-.2l3.2-6.5c.3-.2.6-.2.7 0" class="stars-0 fill-warning"/>
  <path d="m31.4 5.2.9 1.7h.1l1.9.3c.1 0 .1.1 0 .1l-1.4 1.4v.1l.3 1.9c0 .1-.1.1-.1.1l-1.7-.9h-.1l-1.7.9c-.1 0-.1 0-.1-.1l.3-1.9v-.1l-1.4-1.4v-.1l1.9-.3h.1l.9-1.7c0-.1 0-.1.1 0M4.8 1.8l.8 1.7h.1l1.8.3c.1 0 .1.1 0 .1L6.2 5.2v.1l.3 1.8c0 .1-.1.1-.1.1l-1.6-.9h-.1l-1.6.9c-.1 0-.1 0-.1-.1l.3-1.8v-.1L1.9 3.9v-.1l1.8-.3h.1l.8-1.7zm1 30.2.9 1.7h.1l1.9.3c.1 0 .1.1 0 .1l-1.4 1.4v.1l.3 1.9c0 .1-.1.1-.1.1l-1.7-.9h-.1l-1.7.9c-.1 0-.1 0-.1-.1l.3-1.9v-.1l-1.4-1.4V34l1.9-.3h.1l.8-1.7c.1-.1.2-.1.2 0m28.5 2.2 1 1.9h.1l2.1.3c.1 0 .1.1 0 .2L36 38.1v.1l.4 2.1c0 .1-.1.1-.1.1l-1.9-1h-.1l-1.9 1c-.1 0-.1 0-.1-.1l.4-2.1v-.1l-1.5-1.5c-.1-.1 0-.1 0-.2l2.1-.3h.1l1-1.9c-.3-.1-.2-.1-.1 0" class="stars-0 fill-warning" opacity=".25"/>
</svg>
